<svg version="1.0" xmlns="http://www.w3.org/2000/svg"
 width="93" height="40" viewBox="0 0 852.000000 162.000000"
 preserveAspectRatio="xMidYMid meet">
<metadata>
Created by potrace 1.15, written by Peter Selinger 2001-2017
</metadata>
<g transform="translate(0.000000,162.000000) scale(0.100000,-0.100000)"
fill="#000000" stroke="none">
<path d="M335 1187 c-3 -6 -4 -185 -3 -397 l3 -385 73 -3 72 -3 0 401 0 400
-70 0 c-47 0 -72 -4 -75 -13z"/>
<path d="M1000 800 l0 -400 65 0 65 0 2 281 3 282 50 -72 c28 -39 100 -138
160 -219 61 -81 128 -175 150 -209 l40 -62 68 -1 67 0 0 400 0 400 -70 0 -70
0 -2 -277 -3 -277 -49 75 c-28 41 -95 135 -150 209 -56 74 -121 165 -146 202
l-45 68 -67 0 -68 0 0 -400z"/>
<path d="M2110 1135 l0 -65 125 0 125 0 0 -335 0 -335 75 0 75 0 0 335 0 335
125 0 125 0 0 65 0 65 -325 0 -325 0 0 -65z"/>
<path d="M3205 1188 c-3 -7 -4 -186 -3 -398 l3 -385 265 0 265 0 3 62 c4 78
12 75 -216 71 l-172 -3 0 103 0 102 165 0 165 0 0 65 0 65 -165 0 -165 0 0
100 0 100 195 0 196 0 -3 63 -3 62 -263 3 c-205 2 -264 0 -267 -10z"/>
<path d="M4230 800 l0 -401 78 3 77 3 0 148 0 147 72 0 71 0 51 -79 c28 -44
51 -83 51 -86 0 -3 18 -35 41 -70 l41 -65 84 0 c46 0 84 4 84 9 0 11 -79 140
-150 246 l-47 70 49 24 c30 14 58 37 73 60 45 69 51 203 11 279 -21 40 -78 87
-125 101 -24 7 -120 11 -250 11 l-211 0 0 -400z m405 255 c41 -17 55 -46 55
-115 0 -41 -5 -56 -29 -82 l-29 -33 -124 -3 -123 -4 0 126 0 126 108 0 c71 0
119 -5 142 -15z"/>
<path d="M5350 800 l0 -400 70 0 70 0 1 288 c0 158 3 281 6 273 3 -8 47 -70
97 -136 50 -67 140 -190 200 -274 l109 -151 63 0 64 0 0 400 0 400 -70 0 -70
0 0 -277 c-1 -244 -2 -276 -15 -258 -22 32 -188 261 -259 360 -36 50 -78 109
-93 132 l-28 42 -72 1 -73 0 0 -400z"/>
<path d="M6474 1185 c7 -20 70 -112 173 -257 45 -64 83 -119 83 -123 0 -3 -31
-50 -69 -103 -105 -148 -191 -280 -191 -292 0 -6 30 -10 79 -10 l78 0 38 58
c21 31 43 66 49 77 22 41 91 145 97 145 7 0 145 -196 175 -248 l18 -32 88 0
c48 0 88 4 88 8 0 5 -34 58 -76 118 -41 60 -100 146 -131 191 l-55 82 31 53
c18 29 74 115 126 191 52 77 95 143 95 148 0 5 -35 9 -79 9 l-78 0 -87 -135
c-48 -74 -91 -135 -96 -135 -4 0 -48 60 -97 134 l-88 135 -89 0 c-75 1 -87 -1
-82 -14z"/>
<path d="M7550 1135 l0 -65 125 0 125 0 0 -335 0 -335 75 0 75 0 0 335 0 335
125 0 125 0 0 65 0 65 -325 0 -325 0 0 -65z"/>
</g>
</svg>